<?xml version="1.0" encoding="utf-8"?>
<!-- Generator: Adobe Illustrator 16.0.0, SVG Export Plug-In . SVG Version: 6.00 Build 0)  -->
<!DOCTYPE svg PUBLIC "-//W3C//DTD SVG 1.1//EN" "http://www.w3.org/Graphics/SVG/1.1/DTD/svg11.dtd">
<svg version="1.1" id="Layer_1" xmlns="http://www.w3.org/2000/svg" xmlns:xlink="http://www.w3.org/1999/xlink" x="0px" y="0px"
	 width="24px" height="24px" viewBox="0 0 24 24" enable-background="new 0 0 24 24" xml:space="preserve">
<g>
	<g>
		<path d="M19.5,15.2L19.5,15.2c-1,0-1.9-0.5-2.4-1.3l-1.9-1.1h-4.9l-1.9,1.1c-0.6,0.8-1.4,1.3-2.4,1.3c-0.6,0-1.1-0.2-1.6-0.5
			c-0.7-0.4-1.1-1.1-1.3-1.8c-0.2-0.8,0-1.6,0.4-2.2l2.8-4.4c0-0.1,0.1-0.1,0.1-0.1c0.8-1.3,2.2-2,3.7-2h5.4c1.5,0,2.9,0.7,3.7,2
			c0,0,0.1,0.1,0.1,0.1l2.8,4.4c0.9,1.4,0.5,3.2-0.9,4.1C20.6,15,20,15.2,19.5,15.2z M10.1,11.8h5.2c0.1,0,0.2,0,0.2,0.1l2.1,1.2
			c0.1,0,0.1,0.1,0.2,0.2c0.4,0.6,1,0.9,1.6,0.9l0,0c0.4,0,0.7-0.1,1-0.3c0.9-0.6,1.2-1.8,0.6-2.7l-2.8-4.4c0,0-0.1-0.1-0.1-0.1
			c-0.6-1-1.7-1.6-2.9-1.6H10c-1.1,0-2.2,0.6-2.8,1.5c0,0-0.1,0.1-0.1,0.1l-2.8,4.4c-0.3,0.4-0.4,1-0.3,1.5c0.1,0.5,0.4,0.9,0.9,1.2
			c0.9,0.6,2.1,0.3,2.7-0.6c0-0.1,0.1-0.1,0.2-0.2l2.1-1.2C9.9,11.8,10,11.8,10.1,11.8z"/>
	</g>
	<g>
		<g>
			<path d="M21.9,12.6C21.9,12.6,21.9,12.6,21.9,12.6c-0.3,0-0.5-0.2-0.5-0.5c0-0.4-0.1-0.7-0.3-0.9l-0.8-1.3
				c-0.1-0.2-0.1-0.5,0.1-0.6c0.2-0.2,0.5-0.2,0.6,0c0.9,0.7,1.4,1.7,1.4,2.7c0,0,0,0.1,0,0.2C22.4,12.4,22.2,12.6,21.9,12.6z"/>
		</g>
		<g>
			<path d="M5.1,23.5c-0.6,0-1.2-0.2-1.7-0.5c-1.1-0.6-1.7-1.8-1.7-3V4c0-1.2,0.7-2.4,1.7-3c1.1-0.6,2.4-0.6,3.5,0l5.4,3.1
				c0.2,0.1,0.3,0.3,0.3,0.5c0,0.3-0.2,0.5-0.5,0.5c0,0,0,0,0,0H10c-1.1,0-2.2,0.6-2.8,1.5c0,0-0.1,0.1-0.1,0.1l-2.8,4.4
				c-0.3,0.4-0.4,1-0.3,1.5c0.1,0.5,0.4,0.9,0.9,1.2c0.9,0.6,2.1,0.3,2.7-0.6c0-0.1,0.1-0.1,0.2-0.2l2.1-1.2c0.1,0,0.2-0.1,0.2-0.1
				h5.2c0.1,0,0.2,0,0.2,0.1l2.1,1.2c0.1,0,0.1,0.1,0.2,0.2c0.6,0.9,1.8,1.2,2.7,0.6c0.1-0.1,0.2-0.1,0.3-0.2c0.2-0.2,0.5-0.2,0.7,0
				c0.2,0.2,0.2,0.5,0,0.7c-0.3,0.3-0.5,0.5-0.8,0.7L6.8,23C6.3,23.3,5.7,23.5,5.1,23.5z M5.1,1.5c-0.4,0-0.9,0.1-1.2,0.3
				C3,2.3,2.6,3.1,2.6,4v16c0,0.9,0.5,1.7,1.2,2.2c0.8,0.4,1.7,0.4,2.5,0L18.6,15c-0.6-0.2-1.2-0.6-1.6-1.1l-1.9-1.1h-4.9l-1.9,1.1
				c-0.6,0.8-1.4,1.3-2.4,1.3c-0.6,0-1.1-0.2-1.6-0.5c-0.7-0.4-1.1-1.1-1.3-1.8c-0.2-0.8,0-1.6,0.4-2.2l2.8-4.4
				c0-0.1,0.1-0.1,0.1-0.1c0.8-1.3,2.2-2,3.7-2h0.2L6.3,1.8C5.9,1.6,5.5,1.5,5.1,1.5z"/>
		</g>
	</g>
	<g>
		<g>
			<path d="M9.5,10C9.2,10,9,9.8,9,9.5V6.9c0-0.3,0.2-0.5,0.5-0.5S10,6.7,10,6.9v2.6C10,9.8,9.7,10,9.5,10z"/>
		</g>
		<g>
			<path d="M10.8,8.7H8.2c-0.3,0-0.5-0.2-0.5-0.5s0.2-0.5,0.5-0.5h2.6c0.3,0,0.5,0.2,0.5,0.5S11,8.7,10.8,8.7z"/>
		</g>
	</g>
	<g>
		<g>
			<path d="M16.2,10.3c-0.3,0-0.5-0.2-0.5-0.5V9.5c0-0.3,0.2-0.5,0.5-0.5s0.5,0.2,0.5,0.5v0.3C16.7,10.1,16.4,10.3,16.2,10.3z"/>
		</g>
		<g>
			<path d="M17.7,8.7h-0.3c-0.3,0-0.5-0.2-0.5-0.5s0.2-0.5,0.5-0.5h0.3c0.3,0,0.5,0.2,0.5,0.5S18,8.7,17.7,8.7z"/>
		</g>
	</g>
	<g>
		<g>
			<path d="M16.2,7.4c-0.3,0-0.5-0.2-0.5-0.5V6.6c0-0.3,0.2-0.5,0.5-0.5s0.5,0.2,0.5,0.5v0.3C16.7,7.2,16.4,7.4,16.2,7.4z"/>
		</g>
		<g>
			<path d="M14.9,8.7h-0.3c-0.3,0-0.5-0.2-0.5-0.5s0.2-0.5,0.5-0.5h0.3c0.3,0,0.5,0.2,0.5,0.5S15.2,8.7,14.9,8.7z"/>
		</g>
	</g>
</g>
</svg>
